<?xml version="1.0" standalone="no"?>
<!DOCTYPE svg PUBLIC "-//W3C//DTD SVG 20010904//EN"
 "http://www.w3.org/TR/2001/REC-SVG-20010904/DTD/svg10.dtd">
<svg version="1.0" xmlns="http://www.w3.org/2000/svg"
 width="200.000000pt" height="200.000000pt" viewBox="0 0 200.000000 200.000000"
 preserveAspectRatio="xMidYMid meet">
<metadata>
Created by potrace 1.14, written by Peter Selinger 2001-2017
</metadata>
<g transform="translate(0.000000,200.000000) scale(0.100000,-0.100000)"
fill="#000000" stroke="none">
<path d="M928 1457 c-235 -78 -440 -152 -455 -163 -62 -46 -93 -146 -69 -223
15 -50 82 -113 142 -132 81 -28 268 -100 276 -108 5 -4 35 -76 68 -161 71
-183 90 -213 153 -245 81 -40 177 -24 239 42 25 26 55 84 63 122 2 9 61 183
130 386 69 204 128 388 129 410 9 118 -84 216 -201 214 -33 0 -180 -45 -475
-142z m516 -30 c18 -27 25 -3 -114 -407 -56 -162 -112 -330 -126 -372 -26 -80
-47 -105 -83 -93 -22 7 -40 44 -101 203 l-43 113 103 104 103 103 -52 51 c-29
28 -53 51 -55 51 -2 0 -50 -46 -105 -101 l-102 -102 -156 60 c-120 45 -158 64
-164 81 -17 45 10 57 426 196 220 74 412 135 427 135 18 1 33 -7 42 -22z"/>
</g>
</svg>
